# xmcd
#
# Track frame offsets: 
#        150
#        23441
#        38693
#        60095
#        82625
#        98858
#        121674
#        136209
#        160171
#        177676
#
# Disc length: 2638 seconds
#
# Revision: 0
# Processed by: cddbd v1.5.2PL0 Copyright (c) Steve Scherf et al.
# Submitted via: ExactAudioCopy v1.0b3
#
DISCID=660a4c0a
DTITLE=Various Artist - Rave And Techno Classics - CD 1
DYEAR=1900
DGENRE=
TTITLE0=Hi-Score - Alltogether (Rave Mix)
TTITLE1=Megaherz - Liebeslied (ATB Radio Mix)
TTITLE2=Twicks - Paradise Of Love (Pitch Mix)
TTITLE3=Bommbastic - (Can't Help) Falling In Love With You (Club Of Lo
TTITLE3=ve Mix)
TTITLE4=Rob's Project - Loving You (Radio Mix)
TTITLE5=Aphrodite - Tell Me (Live Mix)
TTITLE6=Zyclus - One Of Us (Radabba Mix)
TTITLE7=T. Parker - Mighty Quinn (Turbo Mix)
TTITLE8=Spectrum - Take On Me (Radio Version)
TTITLE9=Peter Schilling - Sonne, Mond Und Sterne (Radio Mix)
EXTD=
EXTT0=
EXTT1=
EXTT2=
EXTT3=
EXTT4=
EXTT5=
EXTT6=
EXTT7=
EXTT8=
EXTT9=
PLAYORDER=
